<svg xmlns="http://www.w3.org/2000/svg" width="14.72" height="17.664" viewBox="0 0 14.72 17.664">
  <g id="Group_5882" data-name="Group 5882" transform="translate(-1308 -30)" opacity="0.6">
    <g id="Group_5739" data-name="Group 5739" transform="translate(1308 30)">
      <path id="Path_30663" data-name="Path 30663" d="M57.343,14.61l-1.264-2.066a6.046,6.046,0,0,1-.892-3.157V7.578a5.073,5.073,0,0,0-3.68-4.839v-1.3a1.472,1.472,0,0,0-2.944,0v1.3a5.073,5.073,0,0,0-3.68,4.839V9.388a6.05,6.05,0,0,1-.891,3.156L42.728,14.61a.354.354,0,0,0,0,.364.368.368,0,0,0,.319.183H57.027a.37.37,0,0,0,.32-.183A.356.356,0,0,0,57.343,14.61Z" transform="translate(-42.675)" fill="#0f122a"/>
    </g>
    <g id="Group_5741" data-name="Group 5741" transform="translate(1312.727 45.992)">
      <path id="Path_30664" data-name="Path 30664" d="M188.815,469.333a2.909,2.909,0,0,0,5.265,0Z" transform="translate(-188.815 -469.333)" fill="#0f122a"/>
    </g>
  </g>
</svg>
